<?xml version="1.0" encoding="utf-8" standalone="no"?>
<!DOCTYPE svg PUBLIC "-//W3C//DTD SVG 1.1//EN"
  "http://www.w3.org/Graphics/SVG/1.1/DTD/svg11.dtd">
<!-- Created with matplotlib (https://matplotlib.org/) -->
<svg height="398.492344pt" version="1.1" viewBox="0 0 1587.392695 398.492344" width="1587.392695pt" xmlns="http://www.w3.org/2000/svg" xmlns:xlink="http://www.w3.org/1999/xlink">
 <defs>
  <style type="text/css">
*{stroke-linecap:butt;stroke-linejoin:round;}
  </style>
 </defs>
 <g id="figure_1">
  <g id="patch_1">
   <path d="M 0 398.492344 
L 1587.392695 398.492344 
L 1587.392695 -0 
L 0 -0 
z
" style="fill:#ffffff;"/>
  </g>
  <g id="axes_1">
   <g id="patch_2">
    <path d="M 55.897813 339.752344 
L 1442.775195 339.752344 
L 1442.775195 31.399219 
L 55.897813 31.399219 
z
" style="fill:#ffffff;"/>
   </g>
   <g id="matplotlib.axis_1">
    <g id="xtick_1">
     <g id="text_1">
      <!-- joy -->
      <defs>
       <path d="M 6.546875 61.375 
L 6.546875 71.578125 
L 15.328125 71.578125 
L 15.328125 61.375 
z
M -4.59375 -20.125 
L -2.9375 -12.640625 
Q -0.296875 -13.328125 1.21875 -13.328125 
Q 3.90625 -13.328125 5.21875 -11.546875 
Q 6.546875 -9.765625 6.546875 -2.640625 
L 6.546875 51.859375 
L 15.328125 51.859375 
L 15.328125 -2.828125 
Q 15.328125 -12.40625 12.84375 -16.15625 
Q 9.671875 -21.046875 2.296875 -21.046875 
Q -1.265625 -21.046875 -4.59375 -20.125 
z
" id="ArialMT-106"/>
       <path d="M 3.328125 25.921875 
Q 3.328125 40.328125 11.328125 47.265625 
Q 18.015625 53.03125 27.640625 53.03125 
Q 38.328125 53.03125 45.109375 46.015625 
Q 51.90625 39.015625 51.90625 26.65625 
Q 51.90625 16.65625 48.90625 10.90625 
Q 45.90625 5.171875 40.15625 2 
Q 34.421875 -1.171875 27.640625 -1.171875 
Q 16.75 -1.171875 10.03125 5.8125 
Q 3.328125 12.796875 3.328125 25.921875 
z
M 12.359375 25.921875 
Q 12.359375 15.96875 16.703125 11.015625 
Q 21.046875 6.0625 27.640625 6.0625 
Q 34.1875 6.0625 38.53125 11.03125 
Q 42.875 16.015625 42.875 26.21875 
Q 42.875 35.84375 38.5 40.796875 
Q 34.125 45.75 27.640625 45.75 
Q 21.046875 45.75 16.703125 40.8125 
Q 12.359375 35.890625 12.359375 25.921875 
z
" id="ArialMT-111"/>
       <path d="M 6.203125 -19.96875 
L 5.21875 -11.71875 
Q 8.109375 -12.5 10.25 -12.5 
Q 13.1875 -12.5 14.9375 -11.515625 
Q 16.703125 -10.546875 17.828125 -8.796875 
Q 18.65625 -7.46875 20.515625 -2.25 
Q 20.75 -1.515625 21.296875 -0.09375 
L 1.609375 51.859375 
L 11.078125 51.859375 
L 21.875 21.828125 
Q 23.96875 16.109375 25.640625 9.8125 
Q 27.15625 15.875 29.25 21.625 
L 40.328125 51.859375 
L 49.125 51.859375 
L 29.390625 -0.875 
Q 26.21875 -9.421875 24.46875 -12.640625 
Q 22.125 -17 19.09375 -19.015625 
Q 16.0625 -21.046875 11.859375 -21.046875 
Q 9.328125 -21.046875 6.203125 -19.96875 
z
" id="ArialMT-121"/>
      </defs>
      <g style="fill:#262626;" transform="translate(131.073118 359.636406)scale(0.18 -0.18)">
       <use xlink:href="#ArialMT-106"/>
       <use x="22.216797" xlink:href="#ArialMT-111"/>
       <use x="77.832031" xlink:href="#ArialMT-121"/>
      </g>
     </g>
    </g>
    <g id="xtick_2">
     <g id="text_2">
      <!-- anticipation -->
      <defs>
       <path d="M 40.4375 6.390625 
Q 35.546875 2.25 31.03125 0.53125 
Q 26.515625 -1.171875 21.34375 -1.171875 
Q 12.796875 -1.171875 8.203125 3 
Q 3.609375 7.171875 3.609375 13.671875 
Q 3.609375 17.484375 5.34375 20.625 
Q 7.078125 23.78125 9.890625 25.6875 
Q 12.703125 27.59375 16.21875 28.5625 
Q 18.796875 29.25 24.03125 29.890625 
Q 34.671875 31.15625 39.703125 32.90625 
Q 39.75 34.71875 39.75 35.203125 
Q 39.75 40.578125 37.25 42.78125 
Q 33.890625 45.75 27.25 45.75 
Q 21.046875 45.75 18.09375 43.578125 
Q 15.140625 41.40625 13.71875 35.890625 
L 5.125 37.0625 
Q 6.296875 42.578125 8.984375 45.96875 
Q 11.671875 49.359375 16.75 51.1875 
Q 21.828125 53.03125 28.515625 53.03125 
Q 35.15625 53.03125 39.296875 51.46875 
Q 43.453125 49.90625 45.40625 47.53125 
Q 47.359375 45.171875 48.140625 41.546875 
Q 48.578125 39.3125 48.578125 33.453125 
L 48.578125 21.734375 
Q 48.578125 9.46875 49.140625 6.21875 
Q 49.703125 2.984375 51.375 0 
L 42.1875 0 
Q 40.828125 2.734375 40.4375 6.390625 
z
M 39.703125 26.03125 
Q 34.90625 24.078125 25.34375 22.703125 
Q 19.921875 21.921875 17.671875 20.9375 
Q 15.4375 19.96875 14.203125 18.09375 
Q 12.984375 16.21875 12.984375 13.921875 
Q 12.984375 10.40625 15.640625 8.0625 
Q 18.3125 5.71875 23.4375 5.71875 
Q 28.515625 5.71875 32.46875 7.9375 
Q 36.421875 10.15625 38.28125 14.015625 
Q 39.703125 17 39.703125 22.796875 
z
" id="ArialMT-97"/>
       <path d="M 6.59375 0 
L 6.59375 51.859375 
L 14.5 51.859375 
L 14.5 44.484375 
Q 20.21875 53.03125 31 53.03125 
Q 35.6875 53.03125 39.625 51.34375 
Q 43.5625 49.65625 45.515625 46.921875 
Q 47.46875 44.1875 48.25 40.4375 
Q 48.734375 37.984375 48.734375 31.890625 
L 48.734375 0 
L 39.9375 0 
L 39.9375 31.546875 
Q 39.9375 36.921875 38.90625 39.578125 
Q 37.890625 42.234375 35.28125 43.8125 
Q 32.671875 45.40625 29.15625 45.40625 
Q 23.53125 45.40625 19.453125 41.84375 
Q 15.375 38.28125 15.375 28.328125 
L 15.375 0 
z
" id="ArialMT-110"/>
       <path d="M 25.78125 7.859375 
L 27.046875 0.09375 
Q 23.34375 -0.6875 20.40625 -0.6875 
Q 15.625 -0.6875 12.984375 0.828125 
Q 10.359375 2.34375 9.28125 4.8125 
Q 8.203125 7.28125 8.203125 15.1875 
L 8.203125 45.015625 
L 1.765625 45.015625 
L 1.765625 51.859375 
L 8.203125 51.859375 
L 8.203125 64.703125 
L 16.9375 69.96875 
L 16.9375 51.859375 
L 25.78125 51.859375 
L 25.78125 45.015625 
L 16.9375 45.015625 
L 16.9375 14.703125 
Q 16.9375 10.9375 17.40625 9.859375 
Q 17.875 8.796875 18.921875 8.15625 
Q 19.96875 7.515625 21.921875 7.515625 
Q 23.390625 7.515625 25.78125 7.859375 
z
" id="ArialMT-116"/>
       <path d="M 6.640625 61.46875 
L 6.640625 71.578125 
L 15.4375 71.578125 
L 15.4375 61.46875 
z
M 6.640625 0 
L 6.640625 51.859375 
L 15.4375 51.859375 
L 15.4375 0 
z
" id="ArialMT-105"/>
       <path d="M 40.4375 19 
L 49.078125 17.875 
Q 47.65625 8.9375 41.8125 3.875 
Q 35.984375 -1.171875 27.484375 -1.171875 
Q 16.84375 -1.171875 10.375 5.78125 
Q 3.90625 12.75 3.90625 25.734375 
Q 3.90625 34.125 6.6875 40.421875 
Q 9.46875 46.734375 15.15625 49.875 
Q 20.84375 53.03125 27.546875 53.03125 
Q 35.984375 53.03125 41.359375 48.75 
Q 46.734375 44.484375 48.25 36.625 
L 39.703125 35.296875 
Q 38.484375 40.53125 35.375 43.15625 
Q 32.28125 45.796875 27.875 45.796875 
Q 21.234375 45.796875 17.078125 41.03125 
Q 12.9375 36.28125 12.9375 25.984375 
Q 12.9375 15.53125 16.9375 10.796875 
Q 20.953125 6.0625 27.390625 6.0625 
Q 32.5625 6.0625 36.03125 9.234375 
Q 39.5 12.40625 40.4375 19 
z
" id="ArialMT-99"/>
       <path d="M 6.59375 -19.875 
L 6.59375 51.859375 
L 14.59375 51.859375 
L 14.59375 45.125 
Q 17.4375 49.078125 21 51.046875 
Q 24.5625 53.03125 29.640625 53.03125 
Q 36.28125 53.03125 41.359375 49.609375 
Q 46.4375 46.1875 49.015625 39.953125 
Q 51.609375 33.734375 51.609375 26.3125 
Q 51.609375 18.359375 48.75 11.984375 
Q 45.90625 5.609375 40.453125 2.21875 
Q 35.015625 -1.171875 29 -1.171875 
Q 24.609375 -1.171875 21.109375 0.6875 
Q 17.625 2.546875 15.375 5.375 
L 15.375 -19.875 
z
M 14.546875 25.640625 
Q 14.546875 15.625 18.59375 10.84375 
Q 22.65625 6.0625 28.421875 6.0625 
Q 34.28125 6.0625 38.453125 11.015625 
Q 42.625 15.96875 42.625 26.375 
Q 42.625 36.28125 38.546875 41.203125 
Q 34.46875 46.140625 28.8125 46.140625 
Q 23.1875 46.140625 18.859375 40.890625 
Q 14.546875 35.640625 14.546875 25.640625 
z
" id="ArialMT-112"/>
      </defs>
      <g style="fill:#262626;" transform="translate(270.408572 359.636406)scale(0.18 -0.18)">
       <use xlink:href="#ArialMT-97"/>
       <use x="55.615234" xlink:href="#ArialMT-110"/>
       <use x="111.230469" xlink:href="#ArialMT-116"/>
       <use x="139.013672" xlink:href="#ArialMT-105"/>
       <use x="161.230469" xlink:href="#ArialMT-99"/>
       <use x="211.230469" xlink:href="#ArialMT-105"/>
       <use x="233.447266" xlink:href="#ArialMT-112"/>
       <use x="289.0625" xlink:href="#ArialMT-97"/>
       <use x="344.677734" xlink:href="#ArialMT-116"/>
       <use x="372.460938" xlink:href="#ArialMT-105"/>
       <use x="394.677734" xlink:href="#ArialMT-111"/>
       <use x="450.292969" xlink:href="#ArialMT-110"/>
      </g>
     </g>
    </g>
    <g id="xtick_3">
     <g id="text_3">
      <!-- trust -->
      <defs>
       <path d="M 6.5 0 
L 6.5 51.859375 
L 14.40625 51.859375 
L 14.40625 44 
Q 17.4375 49.515625 20 51.265625 
Q 22.5625 53.03125 25.640625 53.03125 
Q 30.078125 53.03125 34.671875 50.203125 
L 31.640625 42.046875 
Q 28.421875 43.953125 25.203125 43.953125 
Q 22.3125 43.953125 20.015625 42.21875 
Q 17.71875 40.484375 16.75 37.40625 
Q 15.28125 32.71875 15.28125 27.15625 
L 15.28125 0 
z
" id="ArialMT-114"/>
       <path d="M 40.578125 0 
L 40.578125 7.625 
Q 34.515625 -1.171875 24.125 -1.171875 
Q 19.53125 -1.171875 15.546875 0.578125 
Q 11.578125 2.34375 9.640625 5 
Q 7.71875 7.671875 6.9375 11.53125 
Q 6.390625 14.109375 6.390625 19.734375 
L 6.390625 51.859375 
L 15.1875 51.859375 
L 15.1875 23.09375 
Q 15.1875 16.21875 15.71875 13.8125 
Q 16.546875 10.359375 19.234375 8.375 
Q 21.921875 6.390625 25.875 6.390625 
Q 29.828125 6.390625 33.296875 8.421875 
Q 36.765625 10.453125 38.203125 13.9375 
Q 39.65625 17.4375 39.65625 24.078125 
L 39.65625 51.859375 
L 48.4375 51.859375 
L 48.4375 0 
z
" id="ArialMT-117"/>
       <path d="M 3.078125 15.484375 
L 11.765625 16.84375 
Q 12.5 11.625 15.84375 8.84375 
Q 19.1875 6.0625 25.203125 6.0625 
Q 31.25 6.0625 34.171875 8.515625 
Q 37.109375 10.984375 37.109375 14.3125 
Q 37.109375 17.28125 34.515625 19 
Q 32.71875 20.171875 25.53125 21.96875 
Q 15.875 24.421875 12.140625 26.203125 
Q 8.40625 27.984375 6.46875 31.125 
Q 4.546875 34.28125 4.546875 38.09375 
Q 4.546875 41.546875 6.125 44.5 
Q 7.71875 47.46875 10.453125 49.421875 
Q 12.5 50.921875 16.03125 51.96875 
Q 19.578125 53.03125 23.640625 53.03125 
Q 29.734375 53.03125 34.34375 51.265625 
Q 38.96875 49.515625 41.15625 46.5 
Q 43.359375 43.5 44.1875 38.484375 
L 35.59375 37.3125 
Q 35.015625 41.3125 32.203125 43.546875 
Q 29.390625 45.796875 24.265625 45.796875 
Q 18.21875 45.796875 15.625 43.796875 
Q 13.03125 41.796875 13.03125 39.109375 
Q 13.03125 37.40625 14.109375 36.03125 
Q 15.1875 34.625 17.484375 33.6875 
Q 18.796875 33.203125 25.25 31.453125 
Q 34.578125 28.953125 38.25 27.359375 
Q 41.9375 25.78125 44.03125 22.75 
Q 46.140625 19.734375 46.140625 15.234375 
Q 46.140625 10.84375 43.578125 6.953125 
Q 41.015625 3.078125 36.171875 0.953125 
Q 31.34375 -1.171875 25.25 -1.171875 
Q 15.140625 -1.171875 9.84375 3.03125 
Q 4.546875 7.234375 3.078125 15.484375 
z
" id="ArialMT-115"/>
      </defs>
      <g style="fill:#262626;" transform="translate(471.794807 359.636406)scale(0.18 -0.18)">
       <use xlink:href="#ArialMT-116"/>
       <use x="27.783203" xlink:href="#ArialMT-114"/>
       <use x="61.083984" xlink:href="#ArialMT-117"/>
       <use x="116.699219" xlink:href="#ArialMT-115"/>
       <use x="166.699219" xlink:href="#ArialMT-116"/>
      </g>
     </g>
    </g>
    <g id="xtick_4">
     <g id="text_4">
      <!-- sadness -->
      <defs>
       <path d="M 40.234375 0 
L 40.234375 6.546875 
Q 35.296875 -1.171875 25.734375 -1.171875 
Q 19.53125 -1.171875 14.328125 2.25 
Q 9.125 5.671875 6.265625 11.796875 
Q 3.421875 17.921875 3.421875 25.875 
Q 3.421875 33.640625 6 39.96875 
Q 8.59375 46.296875 13.765625 49.65625 
Q 18.953125 53.03125 25.34375 53.03125 
Q 30.03125 53.03125 33.6875 51.046875 
Q 37.359375 49.078125 39.65625 45.90625 
L 39.65625 71.578125 
L 48.390625 71.578125 
L 48.390625 0 
z
M 12.453125 25.875 
Q 12.453125 15.921875 16.640625 10.984375 
Q 20.84375 6.0625 26.5625 6.0625 
Q 32.328125 6.0625 36.34375 10.765625 
Q 40.375 15.484375 40.375 25.140625 
Q 40.375 35.796875 36.265625 40.765625 
Q 32.171875 45.75 26.171875 45.75 
Q 20.3125 45.75 16.375 40.96875 
Q 12.453125 36.1875 12.453125 25.875 
z
" id="ArialMT-100"/>
       <path d="M 42.09375 16.703125 
L 51.171875 15.578125 
Q 49.03125 7.625 43.21875 3.21875 
Q 37.40625 -1.171875 28.375 -1.171875 
Q 17 -1.171875 10.328125 5.828125 
Q 3.65625 12.84375 3.65625 25.484375 
Q 3.65625 38.578125 10.390625 45.796875 
Q 17.140625 53.03125 27.875 53.03125 
Q 38.28125 53.03125 44.875 45.953125 
Q 51.46875 38.875 51.46875 26.03125 
Q 51.46875 25.25 51.421875 23.6875 
L 12.75 23.6875 
Q 13.234375 15.140625 17.578125 10.59375 
Q 21.921875 6.0625 28.421875 6.0625 
Q 33.25 6.0625 36.671875 8.59375 
Q 40.09375 11.140625 42.09375 16.703125 
z
M 13.234375 30.90625 
L 42.1875 30.90625 
Q 41.609375 37.453125 38.875 40.71875 
Q 34.671875 45.796875 27.984375 45.796875 
Q 21.921875 45.796875 17.796875 41.75 
Q 13.671875 37.703125 13.234375 30.90625 
z
" id="ArialMT-101"/>
      </defs>
      <g style="fill:#262626;" transform="translate(629.137292 359.636406)scale(0.18 -0.18)">
       <use xlink:href="#ArialMT-115"/>
       <use x="50" xlink:href="#ArialMT-97"/>
       <use x="105.615234" xlink:href="#ArialMT-100"/>
       <use x="161.230469" xlink:href="#ArialMT-110"/>
       <use x="216.845703" xlink:href="#ArialMT-101"/>
       <use x="272.460938" xlink:href="#ArialMT-115"/>
       <use x="322.460938" xlink:href="#ArialMT-115"/>
      </g>
     </g>
    </g>
    <g id="xtick_5">
     <g id="text_5">
      <!-- fear -->
      <defs>
       <path d="M 8.6875 0 
L 8.6875 45.015625 
L 0.921875 45.015625 
L 0.921875 51.859375 
L 8.6875 51.859375 
L 8.6875 57.375 
Q 8.6875 62.59375 9.625 65.140625 
Q 10.890625 68.5625 14.078125 70.671875 
Q 17.28125 72.796875 23.046875 72.796875 
Q 26.765625 72.796875 31.25 71.921875 
L 29.9375 64.265625 
Q 27.203125 64.75 24.75 64.75 
Q 20.75 64.75 19.09375 63.03125 
Q 17.4375 61.328125 17.4375 56.640625 
L 17.4375 51.859375 
L 27.546875 51.859375 
L 27.546875 45.015625 
L 17.4375 45.015625 
L 17.4375 0 
z
" id="ArialMT-102"/>
      </defs>
      <g style="fill:#262626;" transform="translate(820.509622 359.636406)scale(0.18 -0.18)">
       <use xlink:href="#ArialMT-102"/>
       <use x="27.783203" xlink:href="#ArialMT-101"/>
       <use x="83.398438" xlink:href="#ArialMT-97"/>
       <use x="139.013672" xlink:href="#ArialMT-114"/>
      </g>
     </g>
    </g>
    <g id="xtick_6">
     <g id="text_6">
      <!-- anger -->
      <defs>
       <path d="M 4.984375 -4.296875 
L 13.53125 -5.5625 
Q 14.0625 -9.515625 16.5 -11.328125 
Q 19.78125 -13.765625 25.4375 -13.765625 
Q 31.546875 -13.765625 34.859375 -11.328125 
Q 38.1875 -8.890625 39.359375 -4.5 
Q 40.046875 -1.8125 39.984375 6.78125 
Q 34.234375 0 25.640625 0 
Q 14.9375 0 9.078125 7.71875 
Q 3.21875 15.4375 3.21875 26.21875 
Q 3.21875 33.640625 5.90625 39.90625 
Q 8.59375 46.1875 13.6875 49.609375 
Q 18.796875 53.03125 25.6875 53.03125 
Q 34.859375 53.03125 40.828125 45.609375 
L 40.828125 51.859375 
L 48.921875 51.859375 
L 48.921875 7.03125 
Q 48.921875 -5.078125 46.453125 -10.125 
Q 44 -15.1875 38.640625 -18.109375 
Q 33.296875 -21.046875 25.484375 -21.046875 
Q 16.21875 -21.046875 10.5 -16.875 
Q 4.78125 -12.703125 4.984375 -4.296875 
z
M 12.25 26.859375 
Q 12.25 16.65625 16.296875 11.96875 
Q 20.359375 7.28125 26.46875 7.28125 
Q 32.515625 7.28125 36.609375 11.9375 
Q 40.71875 16.609375 40.71875 26.5625 
Q 40.71875 36.078125 36.5 40.90625 
Q 32.28125 45.75 26.3125 45.75 
Q 20.453125 45.75 16.34375 40.984375 
Q 12.25 36.234375 12.25 26.859375 
z
" id="ArialMT-103"/>
      </defs>
      <g style="fill:#262626;" transform="translate(986.359919 359.425469)scale(0.18 -0.18)">
       <use xlink:href="#ArialMT-97"/>
       <use x="55.615234" xlink:href="#ArialMT-110"/>
       <use x="111.230469" xlink:href="#ArialMT-103"/>
       <use x="166.845703" xlink:href="#ArialMT-101"/>
       <use x="222.460938" xlink:href="#ArialMT-114"/>
      </g>
     </g>
    </g>
    <g id="xtick_7">
     <g id="text_7">
      <!-- surprise -->
      <g style="fill:#262626;" transform="translate(1150.72803 359.636406)scale(0.18 -0.18)">
       <use xlink:href="#ArialMT-115"/>
       <use x="50" xlink:href="#ArialMT-117"/>
       <use x="105.615234" xlink:href="#ArialMT-114"/>
       <use x="138.916016" xlink:href="#ArialMT-112"/>
       <use x="194.53125" xlink:href="#ArialMT-114"/>
       <use x="227.832031" xlink:href="#ArialMT-105"/>
       <use x="250.048828" xlink:href="#ArialMT-115"/>
       <use x="300.048828" xlink:href="#ArialMT-101"/>
      </g>
     </g>
    </g>
    <g id="xtick_8">
     <g id="text_8">
      <!-- disgust -->
      <g style="fill:#262626;" transform="translate(1327.580828 359.636406)scale(0.18 -0.18)">
       <use xlink:href="#ArialMT-100"/>
       <use x="55.615234" xlink:href="#ArialMT-105"/>
       <use x="77.832031" xlink:href="#ArialMT-115"/>
       <use x="127.832031" xlink:href="#ArialMT-103"/>
       <use x="183.447266" xlink:href="#ArialMT-117"/>
       <use x="239.0625" xlink:href="#ArialMT-115"/>
       <use x="289.0625" xlink:href="#ArialMT-116"/>
      </g>
     </g>
    </g>
    <g id="text_9">
     <!-- Robert Plutchik's 8 Primary Emotions -->
     <defs>
      <path d="M 7.859375 0 
L 7.859375 71.578125 
L 39.59375 71.578125 
Q 49.171875 71.578125 54.140625 69.640625 
Q 59.125 67.71875 62.109375 62.828125 
Q 65.09375 57.953125 65.09375 52.046875 
Q 65.09375 44.4375 60.15625 39.203125 
Q 55.21875 33.984375 44.921875 32.5625 
Q 48.6875 30.765625 50.640625 29 
Q 54.78125 25.203125 58.5 19.484375 
L 70.953125 0 
L 59.03125 0 
L 49.5625 14.890625 
Q 45.40625 21.34375 42.71875 24.75 
Q 40.046875 28.171875 37.921875 29.53125 
Q 35.796875 30.90625 33.59375 31.453125 
Q 31.984375 31.78125 28.328125 31.78125 
L 17.328125 31.78125 
L 17.328125 0 
z
M 17.328125 39.984375 
L 37.703125 39.984375 
Q 44.1875 39.984375 47.84375 41.328125 
Q 51.515625 42.671875 53.421875 45.625 
Q 55.328125 48.578125 55.328125 52.046875 
Q 55.328125 57.125 51.640625 60.390625 
Q 47.953125 63.671875 39.984375 63.671875 
L 17.328125 63.671875 
z
" id="ArialMT-82"/>
      <path d="M 14.703125 0 
L 6.546875 0 
L 6.546875 71.578125 
L 15.328125 71.578125 
L 15.328125 46.046875 
Q 20.90625 53.03125 29.546875 53.03125 
Q 34.328125 53.03125 38.59375 51.09375 
Q 42.875 49.171875 45.625 45.671875 
Q 48.390625 42.1875 49.953125 37.25 
Q 51.515625 32.328125 51.515625 26.703125 
Q 51.515625 13.375 44.921875 6.09375 
Q 38.328125 -1.171875 29.109375 -1.171875 
Q 19.921875 -1.171875 14.703125 6.5 
z
M 14.59375 26.3125 
Q 14.59375 17 17.140625 12.84375 
Q 21.296875 6.0625 28.375 6.0625 
Q 34.125 6.0625 38.328125 11.0625 
Q 42.53125 16.0625 42.53125 25.984375 
Q 42.53125 36.140625 38.5 40.96875 
Q 34.46875 45.796875 28.765625 45.796875 
Q 23 45.796875 18.796875 40.796875 
Q 14.59375 35.796875 14.59375 26.3125 
z
" id="ArialMT-98"/>
      <path id="ArialMT-32"/>
      <path d="M 7.71875 0 
L 7.71875 71.578125 
L 34.71875 71.578125 
Q 41.84375 71.578125 45.609375 70.90625 
Q 50.875 70.015625 54.4375 67.546875 
Q 58.015625 65.09375 60.1875 60.640625 
Q 62.359375 56.203125 62.359375 50.875 
Q 62.359375 41.75 56.546875 35.421875 
Q 50.734375 29.109375 35.546875 29.109375 
L 17.1875 29.109375 
L 17.1875 0 
z
M 17.1875 37.546875 
L 35.6875 37.546875 
Q 44.875 37.546875 48.734375 40.96875 
Q 52.59375 44.390625 52.59375 50.59375 
Q 52.59375 55.078125 50.3125 58.265625 
Q 48.046875 61.46875 44.34375 62.5 
Q 41.9375 63.140625 35.5 63.140625 
L 17.1875 63.140625 
z
" id="ArialMT-80"/>
      <path d="M 6.390625 0 
L 6.390625 71.578125 
L 15.1875 71.578125 
L 15.1875 0 
z
" id="ArialMT-108"/>
      <path d="M 6.59375 0 
L 6.59375 71.578125 
L 15.375 71.578125 
L 15.375 45.90625 
Q 21.53125 53.03125 30.90625 53.03125 
Q 36.671875 53.03125 40.921875 50.75 
Q 45.171875 48.484375 47 44.484375 
Q 48.828125 40.484375 48.828125 32.859375 
L 48.828125 0 
L 40.046875 0 
L 40.046875 32.859375 
Q 40.046875 39.453125 37.1875 42.453125 
Q 34.328125 45.453125 29.109375 45.453125 
Q 25.203125 45.453125 21.75 43.421875 
Q 18.3125 41.40625 16.84375 37.9375 
Q 15.375 34.46875 15.375 28.375 
L 15.375 0 
z
" id="ArialMT-104"/>
      <path d="M 6.640625 0 
L 6.640625 71.578125 
L 15.4375 71.578125 
L 15.4375 30.765625 
L 36.234375 51.859375 
L 47.609375 51.859375 
L 27.78125 32.625 
L 49.609375 0 
L 38.765625 0 
L 21.625 26.515625 
L 15.4375 20.5625 
L 15.4375 0 
z
" id="ArialMT-107"/>
      <path d="M 6.640625 46.234375 
L 4.390625 59.625 
L 4.390625 71.578125 
L 14.40625 71.578125 
L 14.40625 59.625 
L 12.0625 46.234375 
z
" id="ArialMT-39"/>
      <path d="M 17.671875 38.8125 
Q 12.203125 40.828125 9.5625 44.53125 
Q 6.9375 48.25 6.9375 53.421875 
Q 6.9375 61.234375 12.546875 66.546875 
Q 18.171875 71.875 27.484375 71.875 
Q 36.859375 71.875 42.578125 66.421875 
Q 48.296875 60.984375 48.296875 53.171875 
Q 48.296875 48.1875 45.671875 44.5 
Q 43.0625 40.828125 37.75 38.8125 
Q 44.34375 36.671875 47.78125 31.875 
Q 51.21875 27.09375 51.21875 20.453125 
Q 51.21875 11.28125 44.71875 5.03125 
Q 38.234375 -1.21875 27.640625 -1.21875 
Q 17.046875 -1.21875 10.546875 5.046875 
Q 4.046875 11.328125 4.046875 20.703125 
Q 4.046875 27.6875 7.59375 32.390625 
Q 11.140625 37.109375 17.671875 38.8125 
z
M 15.921875 53.71875 
Q 15.921875 48.640625 19.1875 45.40625 
Q 22.46875 42.1875 27.6875 42.1875 
Q 32.765625 42.1875 36.015625 45.375 
Q 39.265625 48.578125 39.265625 53.21875 
Q 39.265625 58.0625 35.90625 61.359375 
Q 32.5625 64.65625 27.59375 64.65625 
Q 22.5625 64.65625 19.234375 61.421875 
Q 15.921875 58.203125 15.921875 53.71875 
z
M 13.09375 20.65625 
Q 13.09375 16.890625 14.875 13.375 
Q 16.65625 9.859375 20.171875 7.921875 
Q 23.6875 6 27.734375 6 
Q 34.03125 6 38.125 10.046875 
Q 42.234375 14.109375 42.234375 20.359375 
Q 42.234375 26.703125 38.015625 30.859375 
Q 33.796875 35.015625 27.4375 35.015625 
Q 21.234375 35.015625 17.15625 30.90625 
Q 13.09375 26.8125 13.09375 20.65625 
z
" id="ArialMT-56"/>
      <path d="M 6.59375 0 
L 6.59375 51.859375 
L 14.453125 51.859375 
L 14.453125 44.578125 
Q 16.890625 48.390625 20.9375 50.703125 
Q 25 53.03125 30.171875 53.03125 
Q 35.9375 53.03125 39.625 50.640625 
Q 43.3125 48.25 44.828125 43.953125 
Q 50.984375 53.03125 60.84375 53.03125 
Q 68.5625 53.03125 72.703125 48.75 
Q 76.859375 44.484375 76.859375 35.59375 
L 76.859375 0 
L 68.109375 0 
L 68.109375 32.671875 
Q 68.109375 37.9375 67.25 40.25 
Q 66.40625 42.578125 64.15625 43.984375 
Q 61.921875 45.40625 58.890625 45.40625 
Q 53.421875 45.40625 49.796875 41.765625 
Q 46.1875 38.140625 46.1875 30.125 
L 46.1875 0 
L 37.40625 0 
L 37.40625 33.6875 
Q 37.40625 39.546875 35.25 42.46875 
Q 33.109375 45.40625 28.21875 45.40625 
Q 24.515625 45.40625 21.359375 43.453125 
Q 18.21875 41.5 16.796875 37.734375 
Q 15.375 33.984375 15.375 26.90625 
L 15.375 0 
z
" id="ArialMT-109"/>
      <path d="M 7.90625 0 
L 7.90625 71.578125 
L 59.671875 71.578125 
L 59.671875 63.140625 
L 17.390625 63.140625 
L 17.390625 41.21875 
L 56.984375 41.21875 
L 56.984375 32.8125 
L 17.390625 32.8125 
L 17.390625 8.453125 
L 61.328125 8.453125 
L 61.328125 0 
z
" id="ArialMT-69"/>
     </defs>
     <g style="fill:#262626;" transform="translate(617.549004 387.924844)scale(0.16 -0.16)">
      <use xlink:href="#ArialMT-82"/>
      <use x="72.216797" xlink:href="#ArialMT-111"/>
      <use x="127.832031" xlink:href="#ArialMT-98"/>
      <use x="183.447266" xlink:href="#ArialMT-101"/>
      <use x="239.0625" xlink:href="#ArialMT-114"/>
      <use x="272.363281" xlink:href="#ArialMT-116"/>
      <use x="300.146484" xlink:href="#ArialMT-32"/>
      <use x="327.929688" xlink:href="#ArialMT-80"/>
      <use x="394.628906" xlink:href="#ArialMT-108"/>
      <use x="416.845703" xlink:href="#ArialMT-117"/>
      <use x="472.460938" xlink:href="#ArialMT-116"/>
      <use x="500.244141" xlink:href="#ArialMT-99"/>
      <use x="550.244141" xlink:href="#ArialMT-104"/>
      <use x="605.859375" xlink:href="#ArialMT-105"/>
      <use x="628.076172" xlink:href="#ArialMT-107"/>
      <use x="678.076172" xlink:href="#ArialMT-39"/>
      <use x="697.167969" xlink:href="#ArialMT-115"/>
      <use x="747.167969" xlink:href="#ArialMT-32"/>
      <use x="774.951172" xlink:href="#ArialMT-56"/>
      <use x="830.566406" xlink:href="#ArialMT-32"/>
      <use x="858.349609" xlink:href="#ArialMT-80"/>
      <use x="925.048828" xlink:href="#ArialMT-114"/>
      <use x="958.349609" xlink:href="#ArialMT-105"/>
      <use x="980.566406" xlink:href="#ArialMT-109"/>
      <use x="1063.867188" xlink:href="#ArialMT-97"/>
      <use x="1119.482422" xlink:href="#ArialMT-114"/>
      <use x="1152.783203" xlink:href="#ArialMT-121"/>
      <use x="1202.783203" xlink:href="#ArialMT-32"/>
      <use x="1230.566406" xlink:href="#ArialMT-69"/>
      <use x="1297.265625" xlink:href="#ArialMT-109"/>
      <use x="1380.566406" xlink:href="#ArialMT-111"/>
      <use x="1436.181641" xlink:href="#ArialMT-116"/>
      <use x="1463.964844" xlink:href="#ArialMT-105"/>
      <use x="1486.181641" xlink:href="#ArialMT-111"/>
      <use x="1541.796875" xlink:href="#ArialMT-110"/>
      <use x="1597.412109" xlink:href="#ArialMT-115"/>
     </g>
    </g>
   </g>
   <g id="matplotlib.axis_2">
    <g id="ytick_1">
     <g id="text_10">
      <!-- 0 -->
      <defs>
       <path d="M 4.15625 35.296875 
Q 4.15625 48 6.765625 55.734375 
Q 9.375 63.484375 14.515625 67.671875 
Q 19.671875 71.875 27.484375 71.875 
Q 33.25 71.875 37.59375 69.546875 
Q 41.9375 67.234375 44.765625 62.859375 
Q 47.609375 58.5 49.21875 52.21875 
Q 50.828125 45.953125 50.828125 35.296875 
Q 50.828125 22.703125 48.234375 14.96875 
Q 45.65625 7.234375 40.5 3 
Q 35.359375 -1.21875 27.484375 -1.21875 
Q 17.140625 -1.21875 11.234375 6.203125 
Q 4.15625 15.140625 4.15625 35.296875 
z
M 13.1875 35.296875 
Q 13.1875 17.671875 17.3125 11.828125 
Q 21.4375 6 27.484375 6 
Q 33.546875 6 37.671875 11.859375 
Q 41.796875 17.71875 41.796875 35.296875 
Q 41.796875 52.984375 37.671875 58.78125 
Q 33.546875 64.59375 27.390625 64.59375 
Q 21.34375 64.59375 17.71875 59.46875 
Q 13.1875 52.9375 13.1875 35.296875 
z
" id="ArialMT-48"/>
      </defs>
      <g style="fill:#262626;" transform="translate(43.336875 343.33125)scale(0.1 -0.1)">
       <use xlink:href="#ArialMT-48"/>
      </g>
     </g>
    </g>
    <g id="ytick_2">
     <g id="text_11">
      <!-- 50 -->
      <defs>
       <path d="M 4.15625 18.75 
L 13.375 19.53125 
Q 14.40625 12.796875 18.140625 9.390625 
Q 21.875 6 27.15625 6 
Q 33.5 6 37.890625 10.78125 
Q 42.28125 15.578125 42.28125 23.484375 
Q 42.28125 31 38.0625 35.34375 
Q 33.84375 39.703125 27 39.703125 
Q 22.75 39.703125 19.328125 37.765625 
Q 15.921875 35.84375 13.96875 32.765625 
L 5.71875 33.84375 
L 12.640625 70.609375 
L 48.25 70.609375 
L 48.25 62.203125 
L 19.671875 62.203125 
L 15.828125 42.96875 
Q 22.265625 47.46875 29.34375 47.46875 
Q 38.71875 47.46875 45.15625 40.96875 
Q 51.609375 34.46875 51.609375 24.265625 
Q 51.609375 14.546875 45.953125 7.46875 
Q 39.0625 -1.21875 27.15625 -1.21875 
Q 17.390625 -1.21875 11.203125 4.25 
Q 5.03125 9.71875 4.15625 18.75 
z
" id="ArialMT-53"/>
      </defs>
      <g style="fill:#262626;" transform="translate(37.775938 282.655704)scale(0.1 -0.1)">
       <use xlink:href="#ArialMT-53"/>
       <use x="55.615234" xlink:href="#ArialMT-48"/>
      </g>
     </g>
    </g>
    <g id="ytick_3">
     <g id="text_12">
      <!-- 100 -->
      <defs>
       <path d="M 37.25 0 
L 28.46875 0 
L 28.46875 56 
Q 25.296875 52.984375 20.140625 49.953125 
Q 14.984375 46.921875 10.890625 45.40625 
L 10.890625 53.90625 
Q 18.265625 57.375 23.78125 62.296875 
Q 29.296875 67.234375 31.59375 71.875 
L 37.25 71.875 
z
" id="ArialMT-49"/>
      </defs>
      <g style="fill:#262626;" transform="translate(32.215 221.980158)scale(0.1 -0.1)">
       <use xlink:href="#ArialMT-49"/>
       <use x="55.615234" xlink:href="#ArialMT-48"/>
       <use x="111.230469" xlink:href="#ArialMT-48"/>
      </g>
     </g>
    </g>
    <g id="ytick_4">
     <g id="text_13">
      <!-- 150 -->
      <g style="fill:#262626;" transform="translate(32.215 161.304612)scale(0.1 -0.1)">
       <use xlink:href="#ArialMT-49"/>
       <use x="55.615234" xlink:href="#ArialMT-53"/>
       <use x="111.230469" xlink:href="#ArialMT-48"/>
      </g>
     </g>
    </g>
    <g id="ytick_5">
     <g id="text_14">
      <!-- 200 -->
      <defs>
       <path d="M 50.34375 8.453125 
L 50.34375 0 
L 3.03125 0 
Q 2.9375 3.171875 4.046875 6.109375 
Q 5.859375 10.9375 9.828125 15.625 
Q 13.8125 20.3125 21.34375 26.46875 
Q 33.015625 36.03125 37.109375 41.625 
Q 41.21875 47.21875 41.21875 52.203125 
Q 41.21875 57.421875 37.46875 61 
Q 33.734375 64.59375 27.734375 64.59375 
Q 21.390625 64.59375 17.578125 60.78125 
Q 13.765625 56.984375 13.71875 50.25 
L 4.6875 51.171875 
Q 5.609375 61.28125 11.65625 66.578125 
Q 17.71875 71.875 27.9375 71.875 
Q 38.234375 71.875 44.234375 66.15625 
Q 50.25 60.453125 50.25 52 
Q 50.25 47.703125 48.484375 43.546875 
Q 46.734375 39.40625 42.65625 34.8125 
Q 38.578125 30.21875 29.109375 22.21875 
Q 21.1875 15.578125 18.9375 13.203125 
Q 16.703125 10.84375 15.234375 8.453125 
z
" id="ArialMT-50"/>
      </defs>
      <g style="fill:#262626;" transform="translate(32.215 100.629066)scale(0.1 -0.1)">
       <use xlink:href="#ArialMT-50"/>
       <use x="55.615234" xlink:href="#ArialMT-48"/>
       <use x="111.230469" xlink:href="#ArialMT-48"/>
      </g>
     </g>
    </g>
    <g id="ytick_6">
     <g id="text_15">
      <!-- 250 -->
      <g style="fill:#262626;" transform="translate(32.215 39.95352)scale(0.1 -0.1)">
       <use xlink:href="#ArialMT-50"/>
       <use x="55.615234" xlink:href="#ArialMT-53"/>
       <use x="111.230469" xlink:href="#ArialMT-48"/>
      </g>
     </g>
    </g>
    <g id="text_16">
     <!-- Prevaling Emotions - Video Count -->
     <defs>
      <path d="M 21 0 
L 1.265625 51.859375 
L 10.546875 51.859375 
L 21.6875 20.796875 
Q 23.484375 15.765625 25 10.359375 
Q 26.171875 14.453125 28.265625 20.21875 
L 39.796875 51.859375 
L 48.828125 51.859375 
L 29.203125 0 
z
" id="ArialMT-118"/>
      <path d="M 3.171875 21.484375 
L 3.171875 30.328125 
L 30.171875 30.328125 
L 30.171875 21.484375 
z
" id="ArialMT-45"/>
      <path d="M 28.171875 0 
L 0.4375 71.578125 
L 10.6875 71.578125 
L 29.296875 19.578125 
Q 31.546875 13.328125 33.0625 7.859375 
Q 34.71875 13.71875 36.921875 19.578125 
L 56.25 71.578125 
L 65.921875 71.578125 
L 37.890625 0 
z
" id="ArialMT-86"/>
      <path d="M 58.796875 25.09375 
L 68.265625 22.703125 
Q 65.28125 11.03125 57.546875 4.90625 
Q 49.8125 -1.21875 38.625 -1.21875 
Q 27.046875 -1.21875 19.796875 3.484375 
Q 12.546875 8.203125 8.765625 17.140625 
Q 4.984375 26.078125 4.984375 36.328125 
Q 4.984375 47.515625 9.25 55.828125 
Q 13.53125 64.15625 21.40625 68.46875 
Q 29.296875 72.796875 38.765625 72.796875 
Q 49.515625 72.796875 56.828125 67.328125 
Q 64.15625 61.859375 67.046875 51.953125 
L 57.71875 49.75 
Q 55.21875 57.5625 50.484375 61.125 
Q 45.75 64.703125 38.578125 64.703125 
Q 30.328125 64.703125 24.78125 60.734375 
Q 19.234375 56.78125 16.984375 50.109375 
Q 14.75 43.453125 14.75 36.375 
Q 14.75 27.25 17.40625 20.4375 
Q 20.0625 13.625 25.671875 10.25 
Q 31.296875 6.890625 37.84375 6.890625 
Q 45.796875 6.890625 51.3125 11.46875 
Q 56.84375 16.0625 58.796875 25.09375 
z
" id="ArialMT-67"/>
     </defs>
     <g style="fill:#262626;" transform="translate(18.8475 305.630781)rotate(-90)scale(0.16 -0.16)">
      <use xlink:href="#ArialMT-80"/>
      <use x="66.699219" xlink:href="#ArialMT-114"/>
      <use x="100" xlink:href="#ArialMT-101"/>
      <use x="155.615234" xlink:href="#ArialMT-118"/>
      <use x="205.615234" xlink:href="#ArialMT-97"/>
      <use x="261.230469" xlink:href="#ArialMT-108"/>
      <use x="283.447266" xlink:href="#ArialMT-105"/>
      <use x="305.664062" xlink:href="#ArialMT-110"/>
      <use x="361.279297" xlink:href="#ArialMT-103"/>
      <use x="416.894531" xlink:href="#ArialMT-32"/>
      <use x="444.677734" xlink:href="#ArialMT-69"/>
      <use x="511.376953" xlink:href="#ArialMT-109"/>
      <use x="594.677734" xlink:href="#ArialMT-111"/>
      <use x="650.292969" xlink:href="#ArialMT-116"/>
      <use x="678.076172" xlink:href="#ArialMT-105"/>
      <use x="700.292969" xlink:href="#ArialMT-111"/>
      <use x="755.908203" xlink:href="#ArialMT-110"/>
      <use x="811.523438" xlink:href="#ArialMT-115"/>
      <use x="861.523438" xlink:href="#ArialMT-32"/>
      <use x="889.306641" xlink:href="#ArialMT-45"/>
      <use x="922.607422" xlink:href="#ArialMT-32"/>
      <use x="950.390625" xlink:href="#ArialMT-86"/>
      <use x="1017.074219" xlink:href="#ArialMT-105"/>
      <use x="1039.291016" xlink:href="#ArialMT-100"/>
      <use x="1094.90625" xlink:href="#ArialMT-101"/>
      <use x="1150.521484" xlink:href="#ArialMT-111"/>
      <use x="1206.136719" xlink:href="#ArialMT-32"/>
      <use x="1233.919922" xlink:href="#ArialMT-67"/>
      <use x="1306.136719" xlink:href="#ArialMT-111"/>
      <use x="1361.751953" xlink:href="#ArialMT-117"/>
      <use x="1417.367188" xlink:href="#ArialMT-110"/>
      <use x="1472.982422" xlink:href="#ArialMT-116"/>
     </g>
    </g>
   </g>
   <g id="patch_3">
    <path clip-path="url(#p59db4b223d)" d="M 73.23378 339.752344 
L 87.102554 339.752344 
L 87.102554 207.479653 
L 73.23378 207.479653 
z
" style="fill:#ea96a3;stroke:#ffffff;stroke-linejoin:miter;stroke-width:0.3;"/>
   </g>
   <g id="patch_4">
    <path clip-path="url(#p59db4b223d)" d="M 246.593453 339.752344 
L 260.462226 339.752344 
L 260.462226 262.087645 
L 246.593453 262.087645 
z
" style="fill:#ea96a3;stroke:#ffffff;stroke-linejoin:miter;stroke-width:0.3;"/>
   </g>
   <g id="patch_5">
    <path clip-path="url(#p59db4b223d)" d="M 419.953125 339.752344 
L 433.821899 339.752344 
L 433.821899 46.082701 
L 419.953125 46.082701 
z
" style="fill:#ea96a3;stroke:#ffffff;stroke-linejoin:miter;stroke-width:0.3;"/>
   </g>
   <g id="patch_6">
    <path clip-path="url(#p59db4b223d)" d="M 593.312798 339.752344 
L 607.181572 339.752344 
L 607.181572 314.268614 
L 593.312798 314.268614 
z
" style="fill:#ea96a3;stroke:#ffffff;stroke-linejoin:miter;stroke-width:0.3;"/>
   </g>
   <g id="patch_7">
    <path clip-path="url(#p59db4b223d)" d="M 766.672471 339.752344 
L 780.541245 339.752344 
L 780.541245 287.571374 
L 766.672471 287.571374 
z
" style="fill:#ea96a3;stroke:#ffffff;stroke-linejoin:miter;stroke-width:0.3;"/>
   </g>
   <g id="patch_8">
    <path clip-path="url(#p59db4b223d)" d="M 940.032144 339.752344 
L 953.900918 339.752344 
L 953.900918 327.617235 
L 940.032144 327.617235 
z
" style="fill:#ea96a3;stroke:#ffffff;stroke-linejoin:miter;stroke-width:0.3;"/>
   </g>
   <g id="patch_9">
    <path clip-path="url(#p59db4b223d)" d="M 1113.391817 339.752344 
L 1127.260591 339.752344 
L 1127.260591 336.111811 
L 1113.391817 336.111811 
z
" style="fill:#ea96a3;stroke:#ffffff;stroke-linejoin:miter;stroke-width:0.3;"/>
   </g>
   <g id="patch_10">
    <path clip-path="url(#p59db4b223d)" d="M 1286.75149 339.752344 
L 1300.620264 339.752344 
L 1300.620264 337.325322 
L 1286.75149 337.325322 
z
" style="fill:#ea96a3;stroke:#ffffff;stroke-linejoin:miter;stroke-width:0.3;"/>
   </g>
   <g id="patch_11">
    <path clip-path="url(#p59db4b223d)" d="M 87.102554 339.752344 
L 100.971327 339.752344 
L 100.971327 317.909147 
L 87.102554 317.909147 
z
" style="fill:#d7944e;stroke:#ffffff;stroke-linejoin:miter;stroke-width:0.3;"/>
   </g>
   <g id="patch_12">
    <path clip-path="url(#p59db4b223d)" d="M 260.462226 339.752344 
L 274.331 339.752344 
L 274.331 326.403724 
L 260.462226 326.403724 
z
" style="fill:#d7944e;stroke:#ffffff;stroke-linejoin:miter;stroke-width:0.3;"/>
   </g>
   <g id="patch_13">
    <path clip-path="url(#p59db4b223d)" d="M 433.821899 339.752344 
L 447.690673 339.752344 
L 447.690673 239.030937 
L 433.821899 239.030937 
z
" style="fill:#d7944e;stroke:#ffffff;stroke-linejoin:miter;stroke-width:0.3;"/>
   </g>
   <g id="patch_14">
    <path clip-path="url(#p59db4b223d)" d="M 607.181572 339.752344 
L 621.050346 339.752344 
L 621.050346 334.8983 
L 607.181572 334.8983 
z
" style="fill:#d7944e;stroke:#ffffff;stroke-linejoin:miter;stroke-width:0.3;"/>
   </g>
   <g id="patch_15">
    <path clip-path="url(#p59db4b223d)" d="M 780.541245 339.752344 
L 794.410019 339.752344 
L 794.410019 326.403724 
L 780.541245 326.403724 
z
" style="fill:#d7944e;stroke:#ffffff;stroke-linejoin:miter;stroke-width:0.3;"/>
   </g>
   <g id="patch_16">
    <path clip-path="url(#p59db4b223d)" d="M 953.900918 339.752344 
L 967.769692 339.752344 
L 967.769692 338.538833 
L 953.900918 338.538833 
z
" style="fill:#d7944e;stroke:#ffffff;stroke-linejoin:miter;stroke-width:0.3;"/>
   </g>
   <g id="patch_17">
    <path clip-path="url(#p59db4b223d)" d="z
" style="fill:#d7944e;stroke:#ffffff;stroke-linejoin:miter;stroke-width:0.3;"/>
   </g>
   <g id="patch_18">
    <path clip-path="url(#p59db4b223d)" d="z
" style="fill:#d7944e;stroke:#ffffff;stroke-linejoin:miter;stroke-width:0.3;"/>
   </g>
   <g id="patch_19">
    <path clip-path="url(#p59db4b223d)" d="M 100.971327 339.752344 
L 114.840101 339.752344 
L 114.840101 334.8983 
L 100.971327 334.8983 
z
" style="fill:#ab9e47;stroke:#ffffff;stroke-linejoin:miter;stroke-width:0.3;"/>
   </g>
   <g id="patch_20">
    <path clip-path="url(#p59db4b223d)" d="M 274.331 339.752344 
L 288.199774 339.752344 
L 288.199774 321.54968 
L 274.331 321.54968 
z
" style="fill:#ab9e47;stroke:#ffffff;stroke-linejoin:miter;stroke-width:0.3;"/>
   </g>
   <g id="patch_21">
    <path clip-path="url(#p59db4b223d)" d="M 447.690673 339.752344 
L 461.559447 339.752344 
L 461.559447 213.547208 
L 447.690673 213.547208 
z
" style="fill:#ab9e47;stroke:#ffffff;stroke-linejoin:miter;stroke-width:0.3;"/>
   </g>
   <g id="patch_22">
    <path clip-path="url(#p59db4b223d)" d="M 621.050346 339.752344 
L 634.91912 339.752344 
L 634.91912 330.044256 
L 621.050346 330.044256 
z
" style="fill:#ab9e47;stroke:#ffffff;stroke-linejoin:miter;stroke-width:0.3;"/>
   </g>
   <g id="patch_23">
    <path clip-path="url(#p59db4b223d)" d="M 794.410019 339.752344 
L 808.278793 339.752344 
L 808.278793 293.638929 
L 794.410019 293.638929 
z
" style="fill:#ab9e47;stroke:#ffffff;stroke-linejoin:miter;stroke-width:0.3;"/>
   </g>
   <g id="patch_24">
    <path clip-path="url(#p59db4b223d)" d="M 967.769692 339.752344 
L 981.638466 339.752344 
L 981.638466 337.325322 
L 967.769692 337.325322 
z
" style="fill:#ab9e47;stroke:#ffffff;stroke-linejoin:miter;stroke-width:0.3;"/>
   </g>
   <g id="patch_25">
    <path clip-path="url(#p59db4b223d)" d="z
" style="fill:#ab9e47;stroke:#ffffff;stroke-linejoin:miter;stroke-width:0.3;"/>
   </g>
   <g id="patch_26">
    <path clip-path="url(#p59db4b223d)" d="M 1314.489037 339.752344 
L 1328.357811 339.752344 
L 1328.357811 338.538833 
L 1314.489037 338.538833 
z
" style="fill:#ab9e47;stroke:#ffffff;stroke-linejoin:miter;stroke-width:0.3;"/>
   </g>
   <g id="patch_27">
    <path clip-path="url(#p59db4b223d)" d="M 114.840101 339.752344 
L 128.708875 339.752344 
L 128.708875 328.830745 
L 114.840101 328.830745 
z
" style="fill:#7fa946;stroke:#ffffff;stroke-linejoin:miter;stroke-width:0.3;"/>
   </g>
   <g id="patch_28">
    <path clip-path="url(#p59db4b223d)" d="M 288.199774 339.752344 
L 302.068548 339.752344 
L 302.068548 294.85244 
L 288.199774 294.85244 
z
" style="fill:#7fa946;stroke:#ffffff;stroke-linejoin:miter;stroke-width:0.3;"/>
   </g>
   <g id="patch_29">
    <path clip-path="url(#p59db4b223d)" d="M 461.559447 339.752344 
L 475.428221 339.752344 
L 475.428221 70.352919 
L 461.559447 70.352919 
z
" style="fill:#7fa946;stroke:#ffffff;stroke-linejoin:miter;stroke-width:0.3;"/>
   </g>
   <g id="patch_30">
    <path clip-path="url(#p59db4b223d)" d="M 634.91912 339.752344 
L 648.787894 339.752344 
L 648.787894 330.044256 
L 634.91912 330.044256 
z
" style="fill:#7fa946;stroke:#ffffff;stroke-linejoin:miter;stroke-width:0.3;"/>
   </g>
   <g id="patch_31">
    <path clip-path="url(#p59db4b223d)" d="M 808.278793 339.752344 
L 822.147567 339.752344 
L 822.147567 287.571374 
L 808.278793 287.571374 
z
" style="fill:#7fa946;stroke:#ffffff;stroke-linejoin:miter;stroke-width:0.3;"/>
   </g>
   <g id="patch_32">
    <path clip-path="url(#p59db4b223d)" d="M 981.638466 339.752344 
L 995.507239 339.752344 
L 995.507239 334.8983 
L 981.638466 334.8983 
z
" style="fill:#7fa946;stroke:#ffffff;stroke-linejoin:miter;stroke-width:0.3;"/>
   </g>
   <g id="patch_33">
    <path clip-path="url(#p59db4b223d)" d="z
" style="fill:#7fa946;stroke:#ffffff;stroke-linejoin:miter;stroke-width:0.3;"/>
   </g>
   <g id="patch_34">
    <path clip-path="url(#p59db4b223d)" d="M 1328.357811 339.752344 
L 1342.226585 339.752344 
L 1342.226585 338.538833 
L 1328.357811 338.538833 
z
" style="fill:#7fa946;stroke:#ffffff;stroke-linejoin:miter;stroke-width:0.3;"/>
   </g>
   <g id="patch_35">
    <path clip-path="url(#p59db4b223d)" d="M 128.708875 339.752344 
L 142.577649 339.752344 
L 142.577649 306.987549 
L 128.708875 306.987549 
z
" style="fill:#49ae83;stroke:#ffffff;stroke-linejoin:miter;stroke-width:0.3;"/>
   </g>
   <g id="patch_36">
    <path clip-path="url(#p59db4b223d)" d="M 302.068548 339.752344 
L 315.937322 339.752344 
L 315.937322 296.065951 
L 302.068548 296.065951 
z
" style="fill:#49ae83;stroke:#ffffff;stroke-linejoin:miter;stroke-width:0.3;"/>
   </g>
   <g id="patch_37">
    <path clip-path="url(#p59db4b223d)" d="M 475.428221 339.752344 
L 489.296995 339.752344 
L 489.296995 160.152727 
L 475.428221 160.152727 
z
" style="fill:#49ae83;stroke:#ffffff;stroke-linejoin:miter;stroke-width:0.3;"/>
   </g>
   <g id="patch_38">
    <path clip-path="url(#p59db4b223d)" d="M 648.787894 339.752344 
L 662.656667 339.752344 
L 662.656667 332.471278 
L 648.787894 332.471278 
z
" style="fill:#49ae83;stroke:#ffffff;stroke-linejoin:miter;stroke-width:0.3;"/>
   </g>
   <g id="patch_39">
    <path clip-path="url(#p59db4b223d)" d="M 822.147567 339.752344 
L 836.01634 339.752344 
L 836.01634 323.976702 
L 822.147567 323.976702 
z
" style="fill:#49ae83;stroke:#ffffff;stroke-linejoin:miter;stroke-width:0.3;"/>
   </g>
   <g id="patch_40">
    <path clip-path="url(#p59db4b223d)" d="z
" style="fill:#49ae83;stroke:#ffffff;stroke-linejoin:miter;stroke-width:0.3;"/>
   </g>
   <g id="patch_41">
    <path clip-path="url(#p59db4b223d)" d="M 1168.866912 339.752344 
L 1182.735686 339.752344 
L 1182.735686 338.538833 
L 1168.866912 338.538833 
z
" style="fill:#49ae83;stroke:#ffffff;stroke-linejoin:miter;stroke-width:0.3;"/>
   </g>
   <g id="patch_42">
    <path clip-path="url(#p59db4b223d)" d="M 1342.226585 339.752344 
L 1356.095359 339.752344 
L 1356.095359 337.325322 
L 1342.226585 337.325322 
z
" style="fill:#49ae83;stroke:#ffffff;stroke-linejoin:miter;stroke-width:0.3;"/>
   </g>
   <g id="patch_43">
    <path clip-path="url(#p59db4b223d)" d="M 142.577649 339.752344 
L 156.446423 339.752344 
L 156.446423 315.482125 
L 142.577649 315.482125 
z
" style="fill:#4baba4;stroke:#ffffff;stroke-linejoin:miter;stroke-width:0.3;"/>
   </g>
   <g id="patch_44">
    <path clip-path="url(#p59db4b223d)" d="M 315.937322 339.752344 
L 329.806096 339.752344 
L 329.806096 294.85244 
L 315.937322 294.85244 
z
" style="fill:#4baba4;stroke:#ffffff;stroke-linejoin:miter;stroke-width:0.3;"/>
   </g>
   <g id="patch_45">
    <path clip-path="url(#p59db4b223d)" d="M 489.296995 339.752344 
L 503.165768 339.752344 
L 503.165768 171.074326 
L 489.296995 171.074326 
z
" style="fill:#4baba4;stroke:#ffffff;stroke-linejoin:miter;stroke-width:0.3;"/>
   </g>
   <g id="patch_46">
    <path clip-path="url(#p59db4b223d)" d="M 662.656667 339.752344 
L 676.525441 339.752344 
L 676.525441 328.830745 
L 662.656667 328.830745 
z
" style="fill:#4baba4;stroke:#ffffff;stroke-linejoin:miter;stroke-width:0.3;"/>
   </g>
   <g id="patch_47">
    <path clip-path="url(#p59db4b223d)" d="M 836.01634 339.752344 
L 849.885114 339.752344 
L 849.885114 321.54968 
L 836.01634 321.54968 
z
" style="fill:#4baba4;stroke:#ffffff;stroke-linejoin:miter;stroke-width:0.3;"/>
   </g>
   <g id="patch_48">
    <path clip-path="url(#p59db4b223d)" d="M 1009.376013 339.752344 
L 1023.244787 339.752344 
L 1023.244787 334.8983 
L 1009.376013 334.8983 
z
" style="fill:#4baba4;stroke:#ffffff;stroke-linejoin:miter;stroke-width:0.3;"/>
   </g>
   <g id="patch_49">
    <path clip-path="url(#p59db4b223d)" d="z
" style="fill:#4baba4;stroke:#ffffff;stroke-linejoin:miter;stroke-width:0.3;"/>
   </g>
   <g id="patch_50">
    <path clip-path="url(#p59db4b223d)" d="M 1356.095359 339.752344 
L 1369.964133 339.752344 
L 1369.964133 337.325322 
L 1356.095359 337.325322 
z
" style="fill:#4baba4;stroke:#ffffff;stroke-linejoin:miter;stroke-width:0.3;"/>
   </g>
   <g id="patch_51">
    <path clip-path="url(#p59db4b223d)" d="M 156.446423 339.752344 
L 170.315197 339.752344 
L 170.315197 322.763191 
L 156.446423 322.763191 
z
" style="fill:#50acc3;stroke:#ffffff;stroke-linejoin:miter;stroke-width:0.3;"/>
   </g>
   <g id="patch_52">
    <path clip-path="url(#p59db4b223d)" d="M 329.806096 339.752344 
L 343.674869 339.752344 
L 343.674869 326.403724 
L 329.806096 326.403724 
z
" style="fill:#50acc3;stroke:#ffffff;stroke-linejoin:miter;stroke-width:0.3;"/>
   </g>
   <g id="patch_53">
    <path clip-path="url(#p59db4b223d)" d="M 503.165768 339.752344 
L 517.034542 339.752344 
L 517.034542 256.02009 
L 503.165768 256.02009 
z
" style="fill:#50acc3;stroke:#ffffff;stroke-linejoin:miter;stroke-width:0.3;"/>
   </g>
   <g id="patch_54">
    <path clip-path="url(#p59db4b223d)" d="M 676.525441 339.752344 
L 690.394215 339.752344 
L 690.394215 331.257767 
L 676.525441 331.257767 
z
" style="fill:#50acc3;stroke:#ffffff;stroke-linejoin:miter;stroke-width:0.3;"/>
   </g>
   <g id="patch_55">
    <path clip-path="url(#p59db4b223d)" d="M 849.885114 339.752344 
L 863.753888 339.752344 
L 863.753888 322.763191 
L 849.885114 322.763191 
z
" style="fill:#50acc3;stroke:#ffffff;stroke-linejoin:miter;stroke-width:0.3;"/>
   </g>
   <g id="patch_56">
    <path clip-path="url(#p59db4b223d)" d="M 1023.244787 339.752344 
L 1037.113561 339.752344 
L 1037.113561 336.111811 
L 1023.244787 336.111811 
z
" style="fill:#50acc3;stroke:#ffffff;stroke-linejoin:miter;stroke-width:0.3;"/>
   </g>
   <g id="patch_57">
    <path clip-path="url(#p59db4b223d)" d="z
" style="fill:#50acc3;stroke:#ffffff;stroke-linejoin:miter;stroke-width:0.3;"/>
   </g>
   <g id="patch_58">
    <path clip-path="url(#p59db4b223d)" d="z
" style="fill:#50acc3;stroke:#ffffff;stroke-linejoin:miter;stroke-width:0.3;"/>
   </g>
   <g id="patch_59">
    <path clip-path="url(#p59db4b223d)" d="M 170.315197 339.752344 
L 184.18397 339.752344 
L 184.18397 322.763191 
L 170.315197 322.763191 
z
" style="fill:#94aee8;stroke:#ffffff;stroke-linejoin:miter;stroke-width:0.3;"/>
   </g>
   <g id="patch_60">
    <path clip-path="url(#p59db4b223d)" d="M 343.674869 339.752344 
L 357.543643 339.752344 
L 357.543643 323.976702 
L 343.674869 323.976702 
z
" style="fill:#94aee8;stroke:#ffffff;stroke-linejoin:miter;stroke-width:0.3;"/>
   </g>
   <g id="patch_61">
    <path clip-path="url(#p59db4b223d)" d="M 517.034542 339.752344 
L 530.903316 339.752344 
L 530.903316 281.50382 
L 517.034542 281.50382 
z
" style="fill:#94aee8;stroke:#ffffff;stroke-linejoin:miter;stroke-width:0.3;"/>
   </g>
   <g id="patch_62">
    <path clip-path="url(#p59db4b223d)" d="M 690.394215 339.752344 
L 704.262989 339.752344 
L 704.262989 332.471278 
L 690.394215 332.471278 
z
" style="fill:#94aee8;stroke:#ffffff;stroke-linejoin:miter;stroke-width:0.3;"/>
   </g>
   <g id="patch_63">
    <path clip-path="url(#p59db4b223d)" d="M 863.753888 339.752344 
L 877.622662 339.752344 
L 877.622662 316.695636 
L 863.753888 316.695636 
z
" style="fill:#94aee8;stroke:#ffffff;stroke-linejoin:miter;stroke-width:0.3;"/>
   </g>
   <g id="patch_64">
    <path clip-path="url(#p59db4b223d)" d="M 1037.113561 339.752344 
L 1050.982335 339.752344 
L 1050.982335 338.538833 
L 1037.113561 338.538833 
z
" style="fill:#94aee8;stroke:#ffffff;stroke-linejoin:miter;stroke-width:0.3;"/>
   </g>
   <g id="patch_65">
    <path clip-path="url(#p59db4b223d)" d="M 1210.473234 339.752344 
L 1224.342008 339.752344 
L 1224.342008 337.325322 
L 1210.473234 337.325322 
z
" style="fill:#94aee8;stroke:#ffffff;stroke-linejoin:miter;stroke-width:0.3;"/>
   </g>
   <g id="patch_66">
    <path clip-path="url(#p59db4b223d)" d="M 1383.832907 339.752344 
L 1397.70168 339.752344 
L 1397.70168 338.538833 
L 1383.832907 338.538833 
z
" style="fill:#94aee8;stroke:#ffffff;stroke-linejoin:miter;stroke-width:0.3;"/>
   </g>
   <g id="patch_67">
    <path clip-path="url(#p59db4b223d)" d="M 184.18397 339.752344 
L 198.052744 339.752344 
L 198.052744 321.54968 
L 184.18397 321.54968 
z
" style="fill:#ce9be9;stroke:#ffffff;stroke-linejoin:miter;stroke-width:0.3;"/>
   </g>
   <g id="patch_68">
    <path clip-path="url(#p59db4b223d)" d="M 357.543643 339.752344 
L 371.412417 339.752344 
L 371.412417 315.482125 
L 357.543643 315.482125 
z
" style="fill:#ce9be9;stroke:#ffffff;stroke-linejoin:miter;stroke-width:0.3;"/>
   </g>
   <g id="patch_69">
    <path clip-path="url(#p59db4b223d)" d="M 530.903316 339.752344 
L 544.77209 339.752344 
L 544.77209 249.952536 
L 530.903316 249.952536 
z
" style="fill:#ce9be9;stroke:#ffffff;stroke-linejoin:miter;stroke-width:0.3;"/>
   </g>
   <g id="patch_70">
    <path clip-path="url(#p59db4b223d)" d="M 704.262989 339.752344 
L 718.131763 339.752344 
L 718.131763 334.8983 
L 704.262989 334.8983 
z
" style="fill:#ce9be9;stroke:#ffffff;stroke-linejoin:miter;stroke-width:0.3;"/>
   </g>
   <g id="patch_71">
    <path clip-path="url(#p59db4b223d)" d="M 877.622662 339.752344 
L 891.491436 339.752344 
L 891.491436 321.54968 
L 877.622662 321.54968 
z
" style="fill:#ce9be9;stroke:#ffffff;stroke-linejoin:miter;stroke-width:0.3;"/>
   </g>
   <g id="patch_72">
    <path clip-path="url(#p59db4b223d)" d="M 1050.982335 339.752344 
L 1064.851108 339.752344 
L 1064.851108 333.684789 
L 1050.982335 333.684789 
z
" style="fill:#ce9be9;stroke:#ffffff;stroke-linejoin:miter;stroke-width:0.3;"/>
   </g>
   <g id="patch_73">
    <path clip-path="url(#p59db4b223d)" d="z
" style="fill:#ce9be9;stroke:#ffffff;stroke-linejoin:miter;stroke-width:0.3;"/>
   </g>
   <g id="patch_74">
    <path clip-path="url(#p59db4b223d)" d="M 1397.70168 339.752344 
L 1411.570454 339.752344 
L 1411.570454 338.538833 
L 1397.70168 338.538833 
z
" style="fill:#ce9be9;stroke:#ffffff;stroke-linejoin:miter;stroke-width:0.3;"/>
   </g>
   <g id="patch_75">
    <path clip-path="url(#p59db4b223d)" d="M 198.052744 339.752344 
L 211.921518 339.752344 
L 211.921518 332.471278 
L 198.052744 332.471278 
z
" style="fill:#e88fcc;stroke:#ffffff;stroke-linejoin:miter;stroke-width:0.3;"/>
   </g>
   <g id="patch_76">
    <path clip-path="url(#p59db4b223d)" d="M 371.412417 339.752344 
L 385.281191 339.752344 
L 385.281191 332.471278 
L 371.412417 332.471278 
z
" style="fill:#e88fcc;stroke:#ffffff;stroke-linejoin:miter;stroke-width:0.3;"/>
   </g>
   <g id="patch_77">
    <path clip-path="url(#p59db4b223d)" d="M 544.77209 339.752344 
L 558.640864 339.752344 
L 558.640864 304.560527 
L 544.77209 304.560527 
z
" style="fill:#e88fcc;stroke:#ffffff;stroke-linejoin:miter;stroke-width:0.3;"/>
   </g>
   <g id="patch_78">
    <path clip-path="url(#p59db4b223d)" d="M 718.131763 339.752344 
L 732.000537 339.752344 
L 732.000537 337.325322 
L 718.131763 337.325322 
z
" style="fill:#e88fcc;stroke:#ffffff;stroke-linejoin:miter;stroke-width:0.3;"/>
   </g>
   <g id="patch_79">
    <path clip-path="url(#p59db4b223d)" d="M 891.491436 339.752344 
L 905.360209 339.752344 
L 905.360209 332.471278 
L 891.491436 332.471278 
z
" style="fill:#e88fcc;stroke:#ffffff;stroke-linejoin:miter;stroke-width:0.3;"/>
   </g>
   <g id="patch_80">
    <path clip-path="url(#p59db4b223d)" d="z
" style="fill:#e88fcc;stroke:#ffffff;stroke-linejoin:miter;stroke-width:0.3;"/>
   </g>
   <g id="patch_81">
    <path clip-path="url(#p59db4b223d)" d="z
" style="fill:#e88fcc;stroke:#ffffff;stroke-linejoin:miter;stroke-width:0.3;"/>
   </g>
   <g id="patch_82">
    <path clip-path="url(#p59db4b223d)" d="z
" style="fill:#e88fcc;stroke:#ffffff;stroke-linejoin:miter;stroke-width:0.3;"/>
   </g>
   <g id="patch_83">
    <path d="M 55.897813 339.752344 
L 55.897813 31.399219 
" style="fill:none;"/>
   </g>
   <g id="patch_84">
    <path d="M 55.897813 339.752344 
L 1442.775195 339.752344 
" style="fill:none;"/>
   </g>
   <g id="text_17">
    <!-- Sentiment Analysis (Plutchik): Comments -->
    <defs>
     <path d="M 4.5 23 
L 13.421875 23.78125 
Q 14.0625 18.40625 16.375 14.96875 
Q 18.703125 11.53125 23.578125 9.40625 
Q 28.46875 7.28125 34.578125 7.28125 
Q 39.984375 7.28125 44.140625 8.890625 
Q 48.296875 10.5 50.3125 13.296875 
Q 52.34375 16.109375 52.34375 19.4375 
Q 52.34375 22.796875 50.390625 25.3125 
Q 48.4375 27.828125 43.953125 29.546875 
Q 41.0625 30.671875 31.203125 33.03125 
Q 21.34375 35.40625 17.390625 37.5 
Q 12.25 40.1875 9.734375 44.15625 
Q 7.234375 48.140625 7.234375 53.078125 
Q 7.234375 58.5 10.296875 63.203125 
Q 13.375 67.921875 19.28125 70.359375 
Q 25.203125 72.796875 32.421875 72.796875 
Q 40.375 72.796875 46.453125 70.234375 
Q 52.546875 67.671875 55.8125 62.6875 
Q 59.078125 57.71875 59.328125 51.421875 
L 50.25 50.734375 
Q 49.515625 57.515625 45.28125 60.984375 
Q 41.0625 64.453125 32.8125 64.453125 
Q 24.21875 64.453125 20.28125 61.296875 
Q 16.359375 58.15625 16.359375 53.71875 
Q 16.359375 49.859375 19.140625 47.359375 
Q 21.875 44.875 33.421875 42.265625 
Q 44.96875 39.65625 49.265625 37.703125 
Q 55.515625 34.8125 58.484375 30.390625 
Q 61.46875 25.984375 61.46875 20.21875 
Q 61.46875 14.5 58.203125 9.4375 
Q 54.9375 4.390625 48.796875 1.578125 
Q 42.671875 -1.21875 35.015625 -1.21875 
Q 25.296875 -1.21875 18.71875 1.609375 
Q 12.15625 4.4375 8.421875 10.125 
Q 4.6875 15.828125 4.5 23 
z
" id="ArialMT-83"/>
     <path d="M -0.140625 0 
L 27.34375 71.578125 
L 37.546875 71.578125 
L 66.84375 0 
L 56.0625 0 
L 47.703125 21.6875 
L 17.78125 21.6875 
L 9.90625 0 
z
M 20.515625 29.390625 
L 44.78125 29.390625 
L 37.3125 49.21875 
Q 33.890625 58.25 32.234375 64.0625 
Q 30.859375 57.171875 28.375 50.390625 
z
" id="ArialMT-65"/>
     <path d="M 23.390625 -21.046875 
Q 16.109375 -11.859375 11.078125 0.4375 
Q 6.0625 12.75 6.0625 25.921875 
Q 6.0625 37.546875 9.8125 48.1875 
Q 14.203125 60.546875 23.390625 72.796875 
L 29.6875 72.796875 
Q 23.78125 62.640625 21.875 58.296875 
Q 18.890625 51.5625 17.1875 44.234375 
Q 15.09375 35.109375 15.09375 25.875 
Q 15.09375 2.390625 29.6875 -21.046875 
z
" id="ArialMT-40"/>
     <path d="M 12.359375 -21.046875 
L 6.0625 -21.046875 
Q 20.65625 2.390625 20.65625 25.875 
Q 20.65625 35.0625 18.5625 44.09375 
Q 16.890625 51.421875 13.921875 58.15625 
Q 12.015625 62.546875 6.0625 72.796875 
L 12.359375 72.796875 
Q 21.53125 60.546875 25.921875 48.1875 
Q 29.6875 37.546875 29.6875 25.921875 
Q 29.6875 12.75 24.625 0.4375 
Q 19.578125 -11.859375 12.359375 -21.046875 
z
" id="ArialMT-41"/>
     <path d="M 9.03125 41.84375 
L 9.03125 51.859375 
L 19.046875 51.859375 
L 19.046875 41.84375 
z
M 9.03125 0 
L 9.03125 10.015625 
L 19.046875 10.015625 
L 19.046875 0 
z
" id="ArialMT-58"/>
    </defs>
    <g style="fill:#262626;" transform="translate(520.113848 25.399219)scale(0.25 -0.25)">
     <use xlink:href="#ArialMT-83"/>
     <use x="66.699219" xlink:href="#ArialMT-101"/>
     <use x="122.314453" xlink:href="#ArialMT-110"/>
     <use x="177.929688" xlink:href="#ArialMT-116"/>
     <use x="205.712891" xlink:href="#ArialMT-105"/>
     <use x="227.929688" xlink:href="#ArialMT-109"/>
     <use x="311.230469" xlink:href="#ArialMT-101"/>
     <use x="366.845703" xlink:href="#ArialMT-110"/>
     <use x="422.460938" xlink:href="#ArialMT-116"/>
     <use x="450.244141" xlink:href="#ArialMT-32"/>
     <use x="477.949219" xlink:href="#ArialMT-65"/>
     <use x="544.648438" xlink:href="#ArialMT-110"/>
     <use x="600.263672" xlink:href="#ArialMT-97"/>
     <use x="655.878906" xlink:href="#ArialMT-108"/>
     <use x="678.095703" xlink:href="#ArialMT-121"/>
     <use x="728.095703" xlink:href="#ArialMT-115"/>
     <use x="778.095703" xlink:href="#ArialMT-105"/>
     <use x="800.3125" xlink:href="#ArialMT-115"/>
     <use x="850.3125" xlink:href="#ArialMT-32"/>
     <use x="878.095703" xlink:href="#ArialMT-40"/>
     <use x="911.396484" xlink:href="#ArialMT-80"/>
     <use x="978.095703" xlink:href="#ArialMT-108"/>
     <use x="1000.3125" xlink:href="#ArialMT-117"/>
     <use x="1055.927734" xlink:href="#ArialMT-116"/>
     <use x="1083.710938" xlink:href="#ArialMT-99"/>
     <use x="1133.710938" xlink:href="#ArialMT-104"/>
     <use x="1189.326172" xlink:href="#ArialMT-105"/>
     <use x="1211.542969" xlink:href="#ArialMT-107"/>
     <use x="1261.542969" xlink:href="#ArialMT-41"/>
     <use x="1294.84375" xlink:href="#ArialMT-58"/>
     <use x="1322.626953" xlink:href="#ArialMT-32"/>
     <use x="1350.410156" xlink:href="#ArialMT-67"/>
     <use x="1422.626953" xlink:href="#ArialMT-111"/>
     <use x="1478.242188" xlink:href="#ArialMT-109"/>
     <use x="1561.542969" xlink:href="#ArialMT-109"/>
     <use x="1644.84375" xlink:href="#ArialMT-101"/>
     <use x="1700.458984" xlink:href="#ArialMT-110"/>
     <use x="1756.074219" xlink:href="#ArialMT-116"/>
     <use x="1783.857422" xlink:href="#ArialMT-115"/>
    </g>
   </g>
  </g>
  <g id="legend_1">
   <g id="text_18">
    <!-- Topic -->
    <defs>
     <path d="M 25.921875 0 
L 25.921875 63.140625 
L 2.34375 63.140625 
L 2.34375 71.578125 
L 59.078125 71.578125 
L 59.078125 63.140625 
L 35.40625 63.140625 
L 35.40625 0 
z
" id="ArialMT-84"/>
    </defs>
    <g style="fill:#262626;" transform="translate(1507.944625 130.519543)scale(0.0935 -0.0935)">
     <use xlink:href="#ArialMT-84"/>
     <use x="60.912109" xlink:href="#ArialMT-111"/>
     <use x="116.527344" xlink:href="#ArialMT-112"/>
     <use x="172.142578" xlink:href="#ArialMT-105"/>
     <use x="194.359375" xlink:href="#ArialMT-99"/>
    </g>
   </g>
   <g id="patch_85">
    <path d="M 1460.342695 144.657543 
L 1480.342695 144.657543 
L 1480.342695 137.657543 
L 1460.342695 137.657543 
z
" style="fill:#ea96a3;stroke:#ffffff;stroke-linejoin:miter;stroke-width:0.3;"/>
   </g>
   <g id="text_19">
    <!-- Philosophy of Life -->
    <defs>
     <path d="M 7.328125 0 
L 7.328125 71.578125 
L 16.796875 71.578125 
L 16.796875 8.453125 
L 52.046875 8.453125 
L 52.046875 0 
z
" id="ArialMT-76"/>
    </defs>
    <g style="fill:#262626;" transform="translate(1488.342695 144.657543)scale(0.1 -0.1)">
     <use xlink:href="#ArialMT-80"/>
     <use x="66.699219" xlink:href="#ArialMT-104"/>
     <use x="122.314453" xlink:href="#ArialMT-105"/>
     <use x="144.53125" xlink:href="#ArialMT-108"/>
     <use x="166.748047" xlink:href="#ArialMT-111"/>
     <use x="222.363281" xlink:href="#ArialMT-115"/>
     <use x="272.363281" xlink:href="#ArialMT-111"/>
     <use x="327.978516" xlink:href="#ArialMT-112"/>
     <use x="383.59375" xlink:href="#ArialMT-104"/>
     <use x="439.208984" xlink:href="#ArialMT-121"/>
     <use x="489.208984" xlink:href="#ArialMT-32"/>
     <use x="516.992188" xlink:href="#ArialMT-111"/>
     <use x="572.607422" xlink:href="#ArialMT-102"/>
     <use x="600.390625" xlink:href="#ArialMT-32"/>
     <use x="628.173828" xlink:href="#ArialMT-76"/>
     <use x="683.789062" xlink:href="#ArialMT-105"/>
     <use x="706.005859" xlink:href="#ArialMT-102"/>
     <use x="733.789062" xlink:href="#ArialMT-101"/>
    </g>
   </g>
   <g id="patch_86">
    <path d="M 1460.342695 158.920043 
L 1480.342695 158.920043 
L 1480.342695 151.920043 
L 1460.342695 151.920043 
z
" style="fill:#d7944e;stroke:#ffffff;stroke-linejoin:miter;stroke-width:0.3;"/>
   </g>
   <g id="text_20">
    <!-- Education -->
    <g style="fill:#262626;" transform="translate(1488.342695 158.920043)scale(0.1 -0.1)">
     <use xlink:href="#ArialMT-69"/>
     <use x="66.699219" xlink:href="#ArialMT-100"/>
     <use x="122.314453" xlink:href="#ArialMT-117"/>
     <use x="177.929688" xlink:href="#ArialMT-99"/>
     <use x="227.929688" xlink:href="#ArialMT-97"/>
     <use x="283.544922" xlink:href="#ArialMT-116"/>
     <use x="311.328125" xlink:href="#ArialMT-105"/>
     <use x="333.544922" xlink:href="#ArialMT-111"/>
     <use x="389.160156" xlink:href="#ArialMT-110"/>
    </g>
   </g>
   <g id="patch_87">
    <path d="M 1460.342695 173.065355 
L 1480.342695 173.065355 
L 1480.342695 166.065355 
L 1460.342695 166.065355 
z
" style="fill:#ab9e47;stroke:#ffffff;stroke-linejoin:miter;stroke-width:0.3;"/>
   </g>
   <g id="text_21">
    <!-- Healthcare -->
    <defs>
     <path d="M 8.015625 0 
L 8.015625 71.578125 
L 17.484375 71.578125 
L 17.484375 42.1875 
L 54.6875 42.1875 
L 54.6875 71.578125 
L 64.15625 71.578125 
L 64.15625 0 
L 54.6875 0 
L 54.6875 33.734375 
L 17.484375 33.734375 
L 17.484375 0 
z
" id="ArialMT-72"/>
    </defs>
    <g style="fill:#262626;" transform="translate(1488.342695 173.065355)scale(0.1 -0.1)">
     <use xlink:href="#ArialMT-72"/>
     <use x="72.216797" xlink:href="#ArialMT-101"/>
     <use x="127.832031" xlink:href="#ArialMT-97"/>
     <use x="183.447266" xlink:href="#ArialMT-108"/>
     <use x="205.664062" xlink:href="#ArialMT-116"/>
     <use x="233.447266" xlink:href="#ArialMT-104"/>
     <use x="289.0625" xlink:href="#ArialMT-99"/>
     <use x="339.0625" xlink:href="#ArialMT-97"/>
     <use x="394.677734" xlink:href="#ArialMT-114"/>
     <use x="427.978516" xlink:href="#ArialMT-101"/>
    </g>
   </g>
   <g id="patch_88">
    <path d="M 1460.342695 187.332543 
L 1480.342695 187.332543 
L 1480.342695 180.332543 
L 1460.342695 180.332543 
z
" style="fill:#7fa946;stroke:#ffffff;stroke-linejoin:miter;stroke-width:0.3;"/>
   </g>
   <g id="text_22">
    <!-- Global Economy -->
    <defs>
     <path d="M 41.21875 28.078125 
L 41.21875 36.46875 
L 71.53125 36.53125 
L 71.53125 9.96875 
Q 64.546875 4.390625 57.125 1.578125 
Q 49.703125 -1.21875 41.890625 -1.21875 
Q 31.34375 -1.21875 22.71875 3.296875 
Q 14.109375 7.8125 9.71875 16.359375 
Q 5.328125 24.90625 5.328125 35.453125 
Q 5.328125 45.90625 9.6875 54.953125 
Q 14.0625 64.015625 22.265625 68.40625 
Q 30.46875 72.796875 41.15625 72.796875 
Q 48.921875 72.796875 55.1875 70.28125 
Q 61.46875 67.78125 65.03125 63.28125 
Q 68.609375 58.796875 70.453125 51.5625 
L 61.921875 49.21875 
Q 60.296875 54.6875 57.90625 57.8125 
Q 55.515625 60.9375 51.0625 62.8125 
Q 46.625 64.703125 41.21875 64.703125 
Q 34.71875 64.703125 29.984375 62.71875 
Q 25.25 60.75 22.34375 57.515625 
Q 19.4375 54.296875 17.828125 50.4375 
Q 15.09375 43.796875 15.09375 36.03125 
Q 15.09375 26.46875 18.390625 20.015625 
Q 21.6875 13.578125 27.984375 10.453125 
Q 34.28125 7.328125 41.359375 7.328125 
Q 47.515625 7.328125 53.375 9.6875 
Q 59.234375 12.0625 62.25 14.75 
L 62.25 28.078125 
z
" id="ArialMT-71"/>
    </defs>
    <g style="fill:#262626;" transform="translate(1488.342695 187.332543)scale(0.1 -0.1)">
     <use xlink:href="#ArialMT-71"/>
     <use x="77.783203" xlink:href="#ArialMT-108"/>
     <use x="100" xlink:href="#ArialMT-111"/>
     <use x="155.615234" xlink:href="#ArialMT-98"/>
     <use x="211.230469" xlink:href="#ArialMT-97"/>
     <use x="266.845703" xlink:href="#ArialMT-108"/>
     <use x="289.0625" xlink:href="#ArialMT-32"/>
     <use x="316.845703" xlink:href="#ArialMT-69"/>
     <use x="383.544922" xlink:href="#ArialMT-99"/>
     <use x="433.544922" xlink:href="#ArialMT-111"/>
     <use x="489.160156" xlink:href="#ArialMT-110"/>
     <use x="544.775391" xlink:href="#ArialMT-111"/>
     <use x="600.390625" xlink:href="#ArialMT-109"/>
     <use x="683.691406" xlink:href="#ArialMT-121"/>
    </g>
   </g>
   <g id="patch_89">
    <path d="M 1460.342695 201.595043 
L 1480.342695 201.595043 
L 1480.342695 194.595043 
L 1460.342695 194.595043 
z
" style="fill:#49ae83;stroke:#ffffff;stroke-linejoin:miter;stroke-width:0.3;"/>
   </g>
   <g id="text_23">
    <!-- Technology -->
    <g style="fill:#262626;" transform="translate(1488.342695 201.595043)scale(0.1 -0.1)">
     <use xlink:href="#ArialMT-84"/>
     <use x="60.912109" xlink:href="#ArialMT-101"/>
     <use x="116.527344" xlink:href="#ArialMT-99"/>
     <use x="166.527344" xlink:href="#ArialMT-104"/>
     <use x="222.142578" xlink:href="#ArialMT-110"/>
     <use x="277.757812" xlink:href="#ArialMT-111"/>
     <use x="333.373047" xlink:href="#ArialMT-108"/>
     <use x="355.589844" xlink:href="#ArialMT-111"/>
     <use x="411.205078" xlink:href="#ArialMT-103"/>
     <use x="466.820312" xlink:href="#ArialMT-121"/>
    </g>
   </g>
   <g id="patch_90">
    <path d="M 1460.342695 215.979418 
L 1480.342695 215.979418 
L 1480.342695 208.979418 
L 1460.342695 208.979418 
z
" style="fill:#4baba4;stroke:#ffffff;stroke-linejoin:miter;stroke-width:0.3;"/>
   </g>
   <g id="text_24">
    <!-- Planet Sustainability -->
    <g style="fill:#262626;" transform="translate(1488.342695 215.979418)scale(0.1 -0.1)">
     <use xlink:href="#ArialMT-80"/>
     <use x="66.699219" xlink:href="#ArialMT-108"/>
     <use x="88.916016" xlink:href="#ArialMT-97"/>
     <use x="144.53125" xlink:href="#ArialMT-110"/>
     <use x="200.146484" xlink:href="#ArialMT-101"/>
     <use x="255.761719" xlink:href="#ArialMT-116"/>
     <use x="283.544922" xlink:href="#ArialMT-32"/>
     <use x="311.328125" xlink:href="#ArialMT-83"/>
     <use x="378.027344" xlink:href="#ArialMT-117"/>
     <use x="433.642578" xlink:href="#ArialMT-115"/>
     <use x="483.642578" xlink:href="#ArialMT-116"/>
     <use x="511.425781" xlink:href="#ArialMT-97"/>
     <use x="567.041016" xlink:href="#ArialMT-105"/>
     <use x="589.257812" xlink:href="#ArialMT-110"/>
     <use x="644.873047" xlink:href="#ArialMT-97"/>
     <use x="700.488281" xlink:href="#ArialMT-98"/>
     <use x="756.103516" xlink:href="#ArialMT-105"/>
     <use x="778.320312" xlink:href="#ArialMT-108"/>
     <use x="800.537109" xlink:href="#ArialMT-105"/>
     <use x="822.753906" xlink:href="#ArialMT-116"/>
     <use x="850.537109" xlink:href="#ArialMT-121"/>
    </g>
   </g>
   <g id="patch_91">
    <path d="M 1460.342695 230.241918 
L 1480.342695 230.241918 
L 1480.342695 223.241918 
L 1460.342695 223.241918 
z
" style="fill:#50acc3;stroke:#ffffff;stroke-linejoin:miter;stroke-width:0.3;"/>
   </g>
   <g id="text_25">
    <!-- Gender -->
    <g style="fill:#262626;" transform="translate(1488.342695 230.241918)scale(0.1 -0.1)">
     <use xlink:href="#ArialMT-71"/>
     <use x="77.783203" xlink:href="#ArialMT-101"/>
     <use x="133.398438" xlink:href="#ArialMT-110"/>
     <use x="189.013672" xlink:href="#ArialMT-100"/>
     <use x="244.628906" xlink:href="#ArialMT-101"/>
     <use x="300.244141" xlink:href="#ArialMT-114"/>
    </g>
   </g>
   <g id="patch_92">
    <path d="M 1460.342695 244.38723 
L 1480.342695 244.38723 
L 1480.342695 237.38723 
L 1460.342695 237.38723 
z
" style="fill:#94aee8;stroke:#ffffff;stroke-linejoin:miter;stroke-width:0.3;"/>
   </g>
   <g id="text_26">
    <!-- Neuroscience -->
    <defs>
     <path d="M 7.625 0 
L 7.625 71.578125 
L 17.328125 71.578125 
L 54.9375 15.375 
L 54.9375 71.578125 
L 64.015625 71.578125 
L 64.015625 0 
L 54.296875 0 
L 16.703125 56.25 
L 16.703125 0 
z
" id="ArialMT-78"/>
    </defs>
    <g style="fill:#262626;" transform="translate(1488.342695 244.38723)scale(0.1 -0.1)">
     <use xlink:href="#ArialMT-78"/>
     <use x="72.216797" xlink:href="#ArialMT-101"/>
     <use x="127.832031" xlink:href="#ArialMT-117"/>
     <use x="183.447266" xlink:href="#ArialMT-114"/>
     <use x="216.748047" xlink:href="#ArialMT-111"/>
     <use x="272.363281" xlink:href="#ArialMT-115"/>
     <use x="322.363281" xlink:href="#ArialMT-99"/>
     <use x="372.363281" xlink:href="#ArialMT-105"/>
     <use x="394.580078" xlink:href="#ArialMT-101"/>
     <use x="450.195312" xlink:href="#ArialMT-110"/>
     <use x="505.810547" xlink:href="#ArialMT-99"/>
     <use x="555.810547" xlink:href="#ArialMT-101"/>
    </g>
   </g>
   <g id="patch_93">
    <path d="M 1460.342695 258.532543 
L 1480.342695 258.532543 
L 1480.342695 251.532543 
L 1460.342695 251.532543 
z
" style="fill:#ce9be9;stroke:#ffffff;stroke-linejoin:miter;stroke-width:0.3;"/>
   </g>
   <g id="text_27">
    <!-- Urbanistics -->
    <defs>
     <path d="M 54.6875 71.578125 
L 64.15625 71.578125 
L 64.15625 30.21875 
Q 64.15625 19.4375 61.71875 13.078125 
Q 59.28125 6.734375 52.90625 2.75 
Q 46.53125 -1.21875 36.1875 -1.21875 
Q 26.125 -1.21875 19.71875 2.25 
Q 13.328125 5.71875 10.59375 12.28125 
Q 7.859375 18.84375 7.859375 30.21875 
L 7.859375 71.578125 
L 17.328125 71.578125 
L 17.328125 30.28125 
Q 17.328125 20.953125 19.0625 16.53125 
Q 20.796875 12.109375 25.015625 9.71875 
Q 29.25 7.328125 35.359375 7.328125 
Q 45.796875 7.328125 50.234375 12.0625 
Q 54.6875 16.796875 54.6875 30.28125 
z
" id="ArialMT-85"/>
    </defs>
    <g style="fill:#262626;" transform="translate(1488.342695 258.532543)scale(0.1 -0.1)">
     <use xlink:href="#ArialMT-85"/>
     <use x="72.216797" xlink:href="#ArialMT-114"/>
     <use x="105.517578" xlink:href="#ArialMT-98"/>
     <use x="161.132812" xlink:href="#ArialMT-97"/>
     <use x="216.748047" xlink:href="#ArialMT-110"/>
     <use x="272.363281" xlink:href="#ArialMT-105"/>
     <use x="294.580078" xlink:href="#ArialMT-115"/>
     <use x="344.580078" xlink:href="#ArialMT-116"/>
     <use x="372.363281" xlink:href="#ArialMT-105"/>
     <use x="394.580078" xlink:href="#ArialMT-99"/>
     <use x="444.580078" xlink:href="#ArialMT-115"/>
    </g>
   </g>
   <g id="patch_94">
    <path d="M 1460.342695 272.677855 
L 1480.342695 272.677855 
L 1480.342695 265.677855 
L 1460.342695 265.677855 
z
" style="fill:#e88fcc;stroke:#ffffff;stroke-linejoin:miter;stroke-width:0.3;"/>
   </g>
   <g id="text_28">
    <!-- Automation -->
    <g style="fill:#262626;" transform="translate(1488.342695 272.677855)scale(0.1 -0.1)">
     <use xlink:href="#ArialMT-65"/>
     <use x="66.699219" xlink:href="#ArialMT-117"/>
     <use x="122.314453" xlink:href="#ArialMT-116"/>
     <use x="150.097656" xlink:href="#ArialMT-111"/>
     <use x="205.712891" xlink:href="#ArialMT-109"/>
     <use x="289.013672" xlink:href="#ArialMT-97"/>
     <use x="344.628906" xlink:href="#ArialMT-116"/>
     <use x="372.412109" xlink:href="#ArialMT-105"/>
     <use x="394.628906" xlink:href="#ArialMT-111"/>
     <use x="450.244141" xlink:href="#ArialMT-110"/>
    </g>
   </g>
  </g>
 </g>
 <defs>
  <clipPath id="p59db4b223d">
   <rect height="308.353125" width="1386.877383" x="55.897813" y="31.399219"/>
  </clipPath>
 </defs>
</svg>
